IKResults-ET2
version=1
nRows=24
nColumns=24
inDegrees=yes

Units are S.I. units (second, meters, Newtons, ...)
If the header above contains a line with 'inDegrees', this indicates whether rotational values are in degrees (yes) or radians (no).

endheader
time	pelvis_tilt	pelvis_list	pelvis_rotation	pelvis_tx	pelvis_ty	pelvis_tz	hip_flexion_r	hip_adduction_r	hip_rotation_r	knee_angle_r	ankle_angle_r	subtalar_angle_r	mtp_angle_r	hip_flexion_l	hip_adduction_l	hip_rotation_l	knee_angle_l	ankle_angle_l	subtalar_angle_l	mtp_angle_l	lumbar_extension	lumbar_bending	lumbar_rotation
      4.38000000	     -3.07498870	      1.97072198	    183.06742726	      1.30059483	      1.00913210	     -0.14691713	    177.57367281	   -186.42562005	   -177.06827910	    -15.79307275	     15.21685831	      2.54343361	      0.00000000	     29.51041454	     -3.30714340	     -0.60499108	    -51.47309991	     13.12774469	      1.22411797	      0.00000000	    -19.30661236	      0.11970196	      5.13582214
      4.39000000	     -3.28574884	      2.08523244	    182.66522220	      1.28580940	      1.00832097	     -0.14703709	    176.02012494	   -186.53986140	   -176.64205344	    -15.05479107	     15.54506774	      2.55712366	      0.00000000	     29.96431945	     -3.65822764	     -1.17364681	    -48.58665005	     13.35404393	      1.74537613	      0.00000000	    -19.58673943	      0.08147657	      5.63136215
      4.40000000	     -3.43995660	      2.20508967	    182.18916956	      1.27109331	      1.00727614	     -0.14701946	    174.57360122	   -186.58721072	   -176.29349110	    -14.38983423	     15.95929488	      2.81332510	      0.00000000	     30.31861741	     -3.99635115	     -1.77307357	    -45.43992982	     13.42273327	      1.99619488	      0.00000000	    -19.88444467	      0.01845067	      5.94709668
      4.41000000	     -3.53302173	      2.30806086	    181.78042946	      1.25608078	      1.00600054	     -0.14680299	    173.22647925	   -186.58749243	   -176.12709733	    -13.85482696	     16.35685528	      3.53263880	      0.00000000	     30.59263577	     -4.24776153	     -2.15627239	    -42.12430777	     13.70432215	      2.70496221	      0.00000000	    -19.93785222	      0.02921067	      6.61888748
      4.42000000	     -3.56977762	      2.42759881	    181.37097780	      1.24095971	      1.00444529	     -0.14642308	    172.00425251	   -186.54680196	   -176.06505336	    -13.40770142	     16.75145867	      4.28062218	      0.00000000	     30.79412012	     -4.46159441	     -2.46997366	    -38.59595002	     13.92390697	      3.18681175	      0.00000000	    -20.00191427	      0.01909311	      7.16102585
      4.43000000	     -3.46873738	      2.54567599	    180.82730281	      1.22600068	      1.00252622	     -0.14637410	    171.03804316	   -186.51609637	   -175.79321610	    -13.20086620	     17.23225146	      4.72171360	      0.00000000	     31.00611560	     -4.71159681	     -2.76832940	    -34.94764268	     14.18529316	      3.69295650	      0.00000000	    -19.92462504	     -0.05260200	      7.77468524
      4.44000000	     -3.30213993	      2.64711471	    180.33639254	      1.21084310	      1.00039793	     -0.14604322	    170.21781135	   -186.42314535	   -175.77925489	    -13.14843050	     17.71119590	      5.59790974	      0.00000000	     31.18080273	     -4.86684263	     -2.82204442	    -31.25126574	     14.45252925	      4.08634705	      0.00000000	    -19.73379361	     -0.09859079	      8.30194766
      4.45000000	     -3.04528797	      2.70956293	    179.82333069	      1.19556560	      0.99795056	     -0.14561811	    169.57932455	   -186.27477062	   -175.82157724	    -13.28129454	     18.27508918	      6.36121055	      0.00000000	     31.32110532	     -4.97138779	     -2.81245503	    -27.52630211	     14.84495202	      4.49721149	      0.00000000	    -19.40565508	     -0.17086860	      8.80587696
      4.46000000	     -2.71020983	      2.78078175	    179.31031829	      1.18024915	      0.99534085	     -0.14517506	    169.10712195	   -186.13287183	   -175.92609344	    -13.55147503	     18.85214107	      7.21425123	      0.00000000	     31.46413745	     -5.07097858	     -2.62672443	    -23.86869016	     15.30205672	      4.96053318	      0.00000000	    -19.00659443	     -0.24502591	      9.36397345
      4.47000000	     -2.26745833	      2.84468806	    178.79677035	      1.16497737	      0.99250817	     -0.14476845	    168.83249927	   -185.99295057	   -175.92140659	    -13.96921437	     19.29985478	      7.82743282	      0.00000000	     31.67458027	     -5.16726348	     -2.26032441	    -20.39424414	     15.66557055	      5.23842868	      0.00000000	    -18.46961903	     -0.30796044	      9.76752768
      4.48000000	     -1.80344025	      2.84529920	    178.30772330	      1.14960155	      0.98962536	     -0.14413974	    168.63991760	   -185.78691731	   -176.02211433	    -14.53181044	     19.79075705	      8.44465419	      0.00000000	     31.87744522	     -5.16889858	     -1.65144952	    -17.17560254	     15.94063813	      5.48443653	      0.00000000	    -17.91019681	     -0.43074196	     10.20902593
      4.49000000	     -1.28409270	      2.89244824	    177.79383697	      1.13420560	      0.98665417	     -0.14364975	    168.60681828	   -185.64421995	   -176.04372983	    -15.26680376	     20.20213673	      8.96328250	      0.00000000	     32.14409857	     -5.23599197	     -0.89380103	    -14.34546599	     16.11439600	      5.46794967	      0.00000000	    -17.29462784	     -0.51405053	     10.62362042
      4.50000000	     -0.82028092	      2.86240594	    177.29942330	      1.11863894	      0.98370671	     -0.14289652	    168.54304881	   -185.41422006	   -176.04869698	    -16.08946008	     20.56980910	      9.26871652	      0.00000000	     32.37663890	     -5.21564722	     -0.31520010	    -12.05628742	     16.36828809	      5.13614382	      0.00000000	    -16.69488504	     -0.66681947	     11.00437998
      4.51000000	     -0.46759517	      2.80192732	    176.85920760	      1.10289605	      0.98093070	     -0.14179904	    168.40091718	   -185.14256276	   -175.98050027	    -16.98173733	     20.90216511	      9.36852324	      0.00000000	     32.52577787	     -5.13282165	     -0.22789749	    -10.47927992	     16.92794988	      4.65775554	      0.00000000	    -16.23318056	     -0.87398643	     11.13389123
      4.52000000	     -0.16977403	      2.74193826	    176.36884333	      1.08701570	      0.97811515	     -0.14081119	    168.24667668	   -184.87078247	   -175.81624463	    -17.98087603	     21.16510951	      9.53790453	      0.00000000	     32.68044841	     -5.09304885	     -0.51901498	     -9.75271813	     17.07973004	      3.58014964	      0.00000000	    -15.77359593	     -0.99478605	     11.63316857
      4.53000000	     -0.00905900	      2.70865899	    175.99746902	      1.07075573	      0.97543573	     -0.13954410	    167.94856378	   -184.63605621	   -175.63632826	    -19.01661170	     21.29369153	      9.50568985	      0.00000000	     32.77590901	     -5.02357414	     -0.84767279	     -9.95532699	     17.30505863	      3.50781735	      0.00000000	    -15.49416683	     -1.16114963	     11.75792875
      4.54000000	      0.03849274	      2.69078772	    175.67982667	      1.05418327	      0.97287758	     -0.13825999	    167.53065757	   -184.42838346	   -175.39526804	    -20.07276227	     21.26350540	      9.33636470	      0.00000000	     32.79873608	     -4.95205453	     -0.98760938	    -10.99456451	     17.45407643	      4.13556452	      0.00000000	    -15.27603931	     -1.25221339	     12.14053340
      4.55000000	     -0.00784132	      2.64416682	    175.39376368	      1.03724306	      0.97053221	     -0.13698126	    167.04299897	   -184.17819373	   -175.18302958	    -21.17637914	     21.02711676	      9.05309621	      0.00000000	     32.70024058	     -4.81981085	     -0.90682852	    -12.63367374	     17.61381075	      4.72310253	      0.00000000	    -15.15992149	     -1.46215363	     12.32971715
      4.56000000	     -0.13333429	      2.53537370	    175.11247720	      1.01983503	      0.96840583	     -0.13565155	    166.48072784	   -183.85609023	   -175.01577789	    -22.30764138	     20.35286702	      8.59483520	      0.00000000	     32.40975437	     -4.59107922	     -0.90433887	    -14.62861286	     17.81032352	      4.98670316	      0.00000000	    -15.07850841	     -1.73579889	     12.45358100
      4.57000000	     -0.25063206	      2.33827678	    174.86587039	      1.00213662	      0.96655827	     -0.13416087	    165.98464683	   -183.39378238	   -175.03644810	    -23.46618096	     19.67443508	      8.61084857	      0.00000000	     31.99705835	     -4.19668379	     -0.72111080	    -16.27293653	     18.52427495	      4.57149481	      0.00000000	    -14.94849251	     -2.13688185	     12.47800875
      4.58000000	     -0.22357886	      2.03614768	    174.63836945	      0.98442372	      0.96491846	     -0.13263309	    165.74514440	   -182.84506124	   -175.08134615	    -24.72608708	     18.68185119	      8.52890525	      0.00000000	     31.56401101	     -3.65792157	     -0.42960012	    -16.66319209	     17.73855752	      3.72061814	      0.00000000	    -14.65229979	     -2.62643288	     12.48351321
      4.59000000	     -0.04007506	      1.66640106	    174.44482981	      0.96687602	      0.96345409	     -0.13111620	    165.81192052	   -182.22376521	   -175.26482042	    -26.10382627	     17.49300632	      8.50252438	      0.00000000	     31.15580734	     -3.10824633	     -0.41109570	    -16.42283779	     14.46655193	      3.18793275	      0.00000000	    -14.17919843	     -3.22187134	     12.39893444
      4.60000000	      0.31285586	      1.15669817	    174.33139336	      0.94961744	      0.96239648	     -0.12944225	    166.22928589	   -181.45191550	   -175.68154259	    -27.63574803	     15.97621739	      8.71627864	      0.00000000	     30.91764359	     -2.46566621	     -0.26609279	    -16.14366823	     11.07175604	      3.11693789	      0.00000000	    -13.56534897	     -3.92297572	     12.22411671
      4.61000000	      0.68569021	      0.47621484	    174.29082129	      0.93236910	      0.96186931	     -0.12751739	    166.83960773	   -180.44999145	   -176.36643082	    -29.33975449	     14.12804558	      9.18530303	      0.00000000	     30.82200185	     -1.63985582	     -0.31250121	    -16.41318996	      8.98971038	      3.58762289	      0.00000000	    -12.98608405	     -4.85624249	     12.08484422
